<?xml version="1.0" encoding="UTF-8" standalone="no"?>
<!-- Created with Inkscape (http://www.inkscape.org/) -->

<svg
   xmlns:dc="http://purl.org/dc/elements/1.1/"
   xmlns:cc="http://creativecommons.org/ns#"
   xmlns:rdf="http://www.w3.org/1999/02/22-rdf-syntax-ns#"
   xmlns:svg="http://www.w3.org/2000/svg"
   xmlns="http://www.w3.org/2000/svg"
   xmlns:xlink="http://www.w3.org/1999/xlink"
   xmlns:sodipodi="http://sodipodi.sourceforge.net/DTD/sodipodi-0.dtd"
   xmlns:inkscape="http://www.inkscape.org/namespaces/inkscape"
   width="73.31221mm"
   height="71.392601mm"
   viewBox="0 0 259.76767 252.96591"
   id="svg4396"
   version="1.1"
   inkscape:version="0.91 r"
   sodipodi:docname="Sakura-openclipart-ciubotaru-2.svg">
  <defs
     id="defs4398">
    <radialGradient
       inkscape:collect="always"
       xlink:href="#linearGradient4528"
       id="radialGradient4560"
       cx="-200.81834"
       cy="398.78241"
       fx="-200.81834"
       fy="398.78241"
       r="54.415058"
       gradientTransform="matrix(0.79270303,2.3852859e-8,-5.0892861e-8,1.6779973,415.83892,-289.19198)"
       gradientUnits="userSpaceOnUse" />
    <linearGradient
       inkscape:collect="always"
       id="linearGradient4528">
      <stop
         style="stop-color:#88024a;stop-opacity:1"
         offset="0"
         id="stop4530" />
      <stop
         style="stop-color:#ffede7;stop-opacity:1"
         offset="1"
         id="stop4532" />
    </linearGradient>
    <radialGradient
       inkscape:collect="always"
       xlink:href="#linearGradient4528"
       id="radialGradient4560-5"
       cx="-200.81834"
       cy="398.78241"
       fx="-200.81834"
       fy="398.78241"
       r="54.415058"
       gradientTransform="matrix(0.24495869,0.75390538,-1.5958703,0.51852964,942.21042,324.55476)"
       gradientUnits="userSpaceOnUse" />
    <radialGradient
       inkscape:collect="always"
       xlink:href="#linearGradient4528"
       id="radialGradient4560-8"
       cx="-200.81834"
       cy="398.78241"
       fx="-200.81834"
       fy="398.78241"
       r="54.415058"
       gradientTransform="matrix(-0.64131023,0.46593914,-0.98630204,-1.3575284,521.16032,1014.822)"
       gradientUnits="userSpaceOnUse" />
    <radialGradient
       inkscape:collect="always"
       xlink:href="#linearGradient4528"
       id="radialGradient4560-7"
       cx="-200.81834"
       cy="398.78241"
       fx="-200.81834"
       fy="398.78241"
       r="54.415058"
       gradientTransform="matrix(-0.64131021,-0.46593917,0.9863021,-1.3575283,-265.43446,827.68385)"
       gradientUnits="userSpaceOnUse" />
    <radialGradient
       inkscape:collect="always"
       xlink:href="#linearGradient4528"
       id="radialGradient4560-3"
       cx="-200.81834"
       cy="398.78241"
       fx="-200.81834"
       fy="398.78241"
       r="54.415058"
       gradientTransform="matrix(0.24495873,-0.75390538,1.5958703,0.51852972,-330.52667,21.758888)"
       gradientUnits="userSpaceOnUse" />
  </defs>
  <sodipodi:namedview
     id="base"
     pagecolor="#ffffff"
     bordercolor="#666666"
     borderopacity="1.0"
     inkscape:pageopacity="0.0"
     inkscape:pageshadow="2"
     inkscape:zoom="1.700183"
     inkscape:cx="25.642293"
     inkscape:cy="75.381556"
     inkscape:document-units="px"
     inkscape:current-layer="layer1"
     showgrid="false"
     fit-margin-top="5"
     fit-margin-left="5"
     fit-margin-bottom="5"
     fit-margin-right="5"
     inkscape:window-width="1280"
     inkscape:window-height="973"
     inkscape:window-x="0"
     inkscape:window-y="26"
     inkscape:window-maximized="1" />
  <metadata
     id="metadata4401">
    <rdf:RDF>
      <cc:Work
         rdf:about="">
        <dc:format>image/svg+xml</dc:format>
        <dc:type
           rdf:resource="http://purl.org/dc/dcmitype/StillImage" />
        <dc:title />
      </cc:Work>
    </rdf:RDF>
  </metadata>
  <g
     inkscape:label="Layer 1"
     inkscape:groupmode="layer"
     id="layer1"
     transform="translate(-126.76587,-252.54284)">
    <path
       style="fill:url(#radialGradient4560);fill-opacity:1;fill-rule:evenodd;stroke:#88024a;stroke-width:2;stroke-linecap:round;stroke-linejoin:round;stroke-miterlimit:4;stroke-dasharray:none;stroke-opacity:1"
       d="m 303.49434,315.48775 c 25.08742,-34.52982 -28.39807,-55.78835 -46.84464,-37.53835 -18.44657,-18.25 -71.93205,3.00853 -46.84464,37.53835 l 46.84464,64.47604 z"
       id="path4428-67-3"
       inkscape:connector-curvature="0"
       sodipodi:nodetypes="scscs" />
    <path
       sodipodi:nodetypes="cc"
       style="fill:none;fill-rule:evenodd;stroke:#88024a;stroke-width:2;stroke-linecap:round;stroke-linejoin:round;stroke-miterlimit:4;stroke-dasharray:none;stroke-opacity:1"
       d="m 256.64962,330.7276 0,-26.40024"
       id="path4222-9-6-2"
       inkscape:connector-curvature="0" />
    <path
       sodipodi:nodetypes="cc"
       style="fill:none;fill-rule:evenodd;stroke:#88024a;stroke-width:2;stroke-linecap:round;stroke-linejoin:round;stroke-miterlimit:4;stroke-dasharray:none;stroke-opacity:1"
       d="m 249.58916,330.63359 -4.75,-24.81374"
       id="path4222-9-6-2-2"
       inkscape:connector-curvature="0" />
    <path
       sodipodi:nodetypes="cc"
       style="fill:none;fill-rule:evenodd;stroke:#88024a;stroke-width:2;stroke-linecap:round;stroke-linejoin:round;stroke-miterlimit:4;stroke-dasharray:none;stroke-opacity:1"
       d="m 263.71007,330.63359 4.75,-24.81374"
       id="path4222-9-6-2-2-1"
       inkscape:connector-curvature="0" />
    <path
       style="fill:url(#radialGradient4560-5);fill-opacity:1;fill-rule:evenodd;stroke:#88024a;stroke-width:2;stroke-linecap:round;stroke-linejoin:round;stroke-miterlimit:4;stroke-dasharray:none;stroke-opacity:1"
       d="m 332.40944,404.56503 c 40.59225,13.18925 44.28238,-44.24772 21.2253,-56.15189 11.65648,-23.18329 -25.08951,-67.48175 -50.17688,-32.95191 l -46.84457,64.47609 z"
       id="path4428-67-3-0"
       inkscape:connector-curvature="0"
       sodipodi:nodetypes="scscs" />
    <path
       sodipodi:nodetypes="cc"
       style="fill:none;fill-rule:evenodd;stroke:#88024a;stroke-width:2;stroke-linecap:round;stroke-linejoin:round;stroke-miterlimit:4;stroke-dasharray:none;stroke-opacity:1"
       d="m 303.43966,364.72243 25.10812,-8.15812"
       id="path4222-9-6-2-8"
       inkscape:connector-curvature="0" />
    <path
       sodipodi:nodetypes="cc"
       style="fill:none;fill-rule:evenodd;stroke:#88024a;stroke-width:2;stroke-linecap:round;stroke-linejoin:round;stroke-miterlimit:4;stroke-dasharray:none;stroke-opacity:1"
       d="M 301.34727,357.97848 323.47871,345.7931"
       id="path4222-9-6-2-2-9"
       inkscape:connector-curvature="0" />
    <path
       sodipodi:nodetypes="cc"
       style="fill:none;fill-rule:evenodd;stroke:#88024a;stroke-width:2;stroke-linecap:round;stroke-linejoin:round;stroke-miterlimit:4;stroke-dasharray:none;stroke-opacity:1"
       d="m 305.71087,371.40826 25.0671,-3.15034"
       id="path4222-9-6-2-2-1-3"
       inkscape:connector-curvature="0" />
    <path
       style="fill:url(#radialGradient4560-8);fill-opacity:1;fill-rule:evenodd;stroke:#88024a;stroke-width:2;stroke-linecap:round;stroke-linejoin:round;stroke-miterlimit:4;stroke-dasharray:none;stroke-opacity:1"
       d="m 256.62716,459.59132 c -3e-5,42.68123 55.76609,28.44176 59.9626,2.83458 25.65067,3.92194 56.42588,-44.71455 15.83362,-57.90375 L 256.6272,379.89452 Z"
       id="path4428-67-3-8"
       inkscape:connector-curvature="0"
       sodipodi:nodetypes="scscs" />
    <path
       sodipodi:nodetypes="cc"
       style="fill:none;fill-rule:evenodd;stroke:#88024a;stroke-width:2;stroke-linecap:round;stroke-linejoin:round;stroke-miterlimit:4;stroke-dasharray:none;stroke-opacity:1"
       d="m 285.56757,419.72739 15.51767,21.35824"
       id="path4222-9-6-2-7"
       inkscape:connector-curvature="0" />
    <path
       sodipodi:nodetypes="cc"
       style="fill:none;fill-rule:evenodd;stroke:#88024a;stroke-width:2;stroke-linecap:round;stroke-linejoin:round;stroke-miterlimit:4;stroke-dasharray:none;stroke-opacity:1"
       d="m 291.33486,415.65341 18.42798,17.28276"
       id="path4222-9-6-2-2-0"
       inkscape:connector-curvature="0" />
    <path
       sodipodi:nodetypes="cc"
       style="fill:none;fill-rule:evenodd;stroke:#88024a;stroke-width:2;stroke-linecap:round;stroke-linejoin:round;stroke-miterlimit:4;stroke-dasharray:none;stroke-opacity:1"
       d="m 279.91081,423.95348 10.74232,22.86671"
       id="path4222-9-6-2-2-1-8"
       inkscape:connector-curvature="0" />
    <path
       style="fill:url(#radialGradient4560-7);fill-opacity:1;fill-rule:evenodd;stroke:#88024a;stroke-width:2;stroke-linecap:round;stroke-linejoin:round;stroke-miterlimit:4;stroke-dasharray:none;stroke-opacity:1"
       d="m 180.87604,404.52216 c -40.59227,13.18919 -9.81705,61.82569 15.83362,57.90375 4.19651,25.60718 59.96262,39.84664 59.9626,-2.83458 l -5e-5,-79.6968 z"
       id="path4428-67-3-5"
       inkscape:connector-curvature="0"
       sodipodi:nodetypes="scscs" />
    <path
       sodipodi:nodetypes="cc"
       style="fill:none;fill-rule:evenodd;stroke:#88024a;stroke-width:2;stroke-linecap:round;stroke-linejoin:round;stroke-miterlimit:4;stroke-dasharray:none;stroke-opacity:1"
       d="M 227.73197,419.72749 212.2143,441.08574"
       id="path4222-9-6-2-6"
       inkscape:connector-curvature="0" />
    <path
       sodipodi:nodetypes="cc"
       style="fill:none;fill-rule:evenodd;stroke:#88024a;stroke-width:2;stroke-linecap:round;stroke-linejoin:round;stroke-miterlimit:4;stroke-dasharray:none;stroke-opacity:1"
       d="M 233.38875,423.95358 222.64643,446.8203"
       id="path4222-9-6-2-2-8"
       inkscape:connector-curvature="0" />
    <path
       sodipodi:nodetypes="cc"
       style="fill:none;fill-rule:evenodd;stroke:#88024a;stroke-width:2;stroke-linecap:round;stroke-linejoin:round;stroke-miterlimit:4;stroke-dasharray:none;stroke-opacity:1"
       d="m 221.96469,415.65352 -18.42798,17.28276"
       id="path4222-9-6-2-2-1-2"
       inkscape:connector-curvature="0" />
    <path
       style="fill:url(#radialGradient4560-3);fill-opacity:1;fill-rule:evenodd;stroke:#88024a;stroke-width:2;stroke-linecap:round;stroke-linejoin:round;stroke-miterlimit:4;stroke-dasharray:none;stroke-opacity:1"
       d="m 209.84155,315.46124 c -25.08737,-34.52985 -61.83336,9.76863 -50.17689,32.95192 -23.05708,11.90417 -19.36694,69.34113 21.22531,56.15189 l 75.79615,-24.62771 z"
       id="path4428-67-3-1"
       inkscape:connector-curvature="0"
       sodipodi:nodetypes="scscs" />
    <path
       sodipodi:nodetypes="cc"
       style="fill:none;fill-rule:evenodd;stroke:#88024a;stroke-width:2;stroke-linecap:round;stroke-linejoin:round;stroke-miterlimit:4;stroke-dasharray:none;stroke-opacity:1"
       d="m 209.85969,364.72259 -25.10812,-8.15812"
       id="path4222-9-6-2-23"
       inkscape:connector-curvature="0" />
    <path
       sodipodi:nodetypes="cc"
       style="fill:none;fill-rule:evenodd;stroke:#88024a;stroke-width:2;stroke-linecap:round;stroke-linejoin:round;stroke-miterlimit:4;stroke-dasharray:none;stroke-opacity:1"
       d="m 207.58848,371.40844 -25.0671,-3.15035"
       id="path4222-9-6-2-2-4"
       inkscape:connector-curvature="0" />
    <path
       sodipodi:nodetypes="cc"
       style="fill:none;fill-rule:evenodd;stroke:#88024a;stroke-width:2;stroke-linecap:round;stroke-linejoin:round;stroke-miterlimit:4;stroke-dasharray:none;stroke-opacity:1"
       d="M 211.95208,357.97866 189.82064,345.79327"
       id="path4222-9-6-2-2-1-23"
       inkscape:connector-curvature="0" />
    <path
       inkscape:connector-curvature="0"
       id="path7343-2-4-3"
       style="font-style:normal;font-variant:normal;font-weight:500;font-stretch:normal;font-size:45px;line-height:125%;font-family:'Sawarabi Gothic';-inkscape-font-specification:'Sawarabi Gothic Medium';text-align:start;letter-spacing:0px;word-spacing:0px;writing-mode:lr-tb;text-anchor:start;fill:#ce0165;fill-opacity:1;stroke:#ffffff;stroke-width:6.25;stroke-linecap:round;stroke-linejoin:round;stroke-miterlimit:4;stroke-dasharray:none;stroke-opacity:1"
       d="m 263.45331,398.96727 -16.5659,-0.22196 -0.0194,1.45006 -6.2177,-0.0833 0.18222,-13.59985 q -2.36823,1.26478 -5.1079,2.37075 l -2.41999,-4.71302 q 5.5889,-2.1885 9.38504,-5.06027 l -7.51397,-0.10067 0.0553,-4.13049 11.77628,0.15778 q 0.84902,-1.0434 1.65704,-2.30711 l -11.05126,-0.14807 0.0539,-4.02063 13.05059,0.17486 q 0.43157,-1.049 0.72955,-1.96794 l -14.94006,-0.20017 0.0577,-4.30626 15.92874,0.21342 q 0.2614,-1.4688 0.41354,-2.98302 l 6.27861,0.4577 q -0.14802,1.20663 -0.40853,2.60951 l 16.12648,0.21607 -0.0577,4.30625 -17.09318,-0.22902 q -0.29858,0.96288 -0.66365,1.96883 l 16.21436,0.21724 -0.0539,4.02063 -9.60118,-0.12864 q 0.75189,1.28461 1.63856,2.35127 l 10.63382,0.14247 -0.0547,4.08656 -6.26165,-0.0839 q 3.56757,2.70673 8.2689,4.43979 l -3.49543,5.0293 q -2.33555,-1.17397 -4.55802,-2.58815 l -0.19016,14.19306 -6.19574,-0.083 0.0194,-1.45006 z m -8.13186,-26.14889 q -0.65422,1.26577 -1.32746,2.31152 l 4.65778,0.0624 q -0.55593,-1.15014 -1.04536,-2.34332 l -2.28496,-0.0306 z m -6.9723,8.67446 15.48933,0.20753 q -1.36737,-1.27088 -2.42951,-2.36186 l -10.63382,-0.14248 q -1.18122,1.23673 -2.426,2.29681 z m 15.24634,6.86259 0.0368,-2.74634 -16.5659,-0.22196 -0.0368,2.74634 16.5659,0.22196 z m -16.6545,6.39122 16.5659,0.22196 0.0392,-2.92211 -16.5659,-0.22196 -0.0392,2.92211 z" />
    <path
       inkscape:connector-curvature="0"
       id="path7343-2-4"
       style="font-style:normal;font-variant:normal;font-weight:500;font-stretch:normal;font-size:45px;line-height:125%;font-family:'Sawarabi Gothic';-inkscape-font-specification:'Sawarabi Gothic Medium';text-align:start;letter-spacing:0px;word-spacing:0px;writing-mode:lr-tb;text-anchor:start;fill:#ce0165;fill-opacity:1;stroke:none;stroke-width:1px;stroke-linecap:butt;stroke-linejoin:miter;stroke-opacity:1"
       d="m 263.45331,398.96727 -16.5659,-0.22196 -0.0194,1.45006 -6.2177,-0.0833 0.18222,-13.59985 q -2.36823,1.26478 -5.1079,2.37075 l -2.41999,-4.71302 q 5.5889,-2.1885 9.38504,-5.06027 l -7.51397,-0.10067 0.0553,-4.13049 11.77628,0.15778 q 0.84902,-1.0434 1.65704,-2.30711 l -11.05126,-0.14807 0.0539,-4.02063 13.05059,0.17486 q 0.43157,-1.049 0.72955,-1.96794 l -14.94006,-0.20017 0.0577,-4.30626 15.92874,0.21342 q 0.2614,-1.4688 0.41354,-2.98302 l 6.27861,0.4577 q -0.14802,1.20663 -0.40853,2.60951 l 16.12648,0.21607 -0.0577,4.30625 -17.09318,-0.22902 q -0.29858,0.96288 -0.66365,1.96883 l 16.21436,0.21724 -0.0539,4.02063 -9.60118,-0.12864 q 0.75189,1.28461 1.63856,2.35127 l 10.63382,0.14247 -0.0547,4.08656 -6.26165,-0.0839 q 3.56757,2.70673 8.2689,4.43979 l -3.49543,5.0293 q -2.33555,-1.17397 -4.55802,-2.58815 l -0.19016,14.19306 -6.19574,-0.083 0.0194,-1.45006 z m -8.13186,-26.14889 q -0.65422,1.26577 -1.32746,2.31152 l 4.65778,0.0624 q -0.55593,-1.15014 -1.04536,-2.34332 l -2.28496,-0.0306 z m -6.9723,8.67446 15.48933,0.20753 q -1.36737,-1.27088 -2.42951,-2.36186 l -10.63382,-0.14248 q -1.18122,1.23673 -2.426,2.29681 z m 15.24634,6.86259 0.0368,-2.74634 -16.5659,-0.22196 -0.0368,2.74634 16.5659,0.22196 z m -16.6545,6.39122 16.5659,0.22196 0.0392,-2.92211 -16.5659,-0.22196 -0.0392,2.92211 z" />
  </g>
</svg>
